<svg width="24" height="25" viewBox="0 0 24 25" fill="none" xmlns="http://www.w3.org/2000/svg">
<path d="M21.41 9.14013C21.41 9.14013 21.41 9.14013 21.41 9.09013C20.7053 7.16635 19.4269 5.50541 17.7474 4.33199C16.068 3.15857 14.0687 2.5293 12.02 2.5293C9.9712 2.5293 7.97189 3.15857 6.29246 4.33199C4.61304 5.50541 3.33455 7.16635 2.62995 9.09013C2.62995 9.09013 2.62995 9.09013 2.62995 9.14013C1.84308 11.311 1.84308 13.6892 2.62995 15.8601C2.62995 15.8601 2.62995 15.8601 2.62995 15.9101C3.33455 17.8339 4.61304 19.4948 6.29246 20.6683C7.97189 21.8417 9.9712 22.471 12.02 22.471C14.0687 22.471 16.068 21.8417 17.7474 20.6683C19.4269 19.4948 20.7053 17.8339 21.41 15.9101C21.41 15.9101 21.41 15.9101 21.41 15.8601C22.1968 13.6892 22.1968 11.311 21.41 9.14013ZM4.25995 14.5001C3.91318 13.1893 3.91318 11.8109 4.25995 10.5001H6.11995C5.95998 11.8287 5.95998 13.1716 6.11995 14.5001H4.25995ZM5.07995 16.5001H6.47995C6.71467 17.392 7.05016 18.2542 7.47995 19.0701C6.49925 18.4021 5.67945 17.5242 5.07995 16.5001ZM6.47995 8.50013H5.07995C5.67082 7.47921 6.48014 6.60159 7.44995 5.93013C7.03051 6.74737 6.70509 7.60954 6.47995 8.50013ZM11 20.2001C9.77172 19.2988 8.9091 17.9854 8.56995 16.5001H11V20.2001ZM11 14.5001H8.13995C7.95334 13.1733 7.95334 11.8269 8.13995 10.5001H11V14.5001ZM11 8.50013H8.56995C8.9091 7.01489 9.77172 5.70144 11 4.80013V8.50013ZM18.92 8.50013H17.52C17.2852 7.60828 16.9497 6.74606 16.52 5.93013C17.5007 6.5982 18.3205 7.47607 18.92 8.50013ZM13 4.80013C14.2282 5.70144 15.0908 7.01489 15.43 8.50013H13V4.80013ZM13 20.2001V16.5001H15.43C15.0908 17.9854 14.2282 19.2988 13 20.2001ZM15.86 14.5001H13V10.5001H15.86C16.0466 11.8269 16.0466 13.1733 15.86 14.5001ZM16.55 19.0701C16.9797 18.2542 17.3152 17.392 17.55 16.5001H18.95C18.3505 17.5242 17.5307 18.4021 16.55 19.0701ZM19.74 14.5001H17.88C17.9613 13.8366 18.0014 13.1686 18 12.5001C18.0011 11.8316 17.961 11.1637 17.88 10.5001H19.74C20.0867 11.8109 20.0867 13.1893 19.74 14.5001Z" fill="#06161C"/>
</svg>
