<svg width="24" height="25" viewBox="0 0 24 25" fill="none" xmlns="http://www.w3.org/2000/svg">
<path d="M22.6023 10.504C22.5606 10.2733 22.4393 10.0647 22.2594 9.91438C22.0796 9.7641 21.8527 9.68174 21.6184 9.68168H12.2C12.0686 9.68165 11.9386 9.70749 11.8172 9.75774C11.6959 9.80798 11.5857 9.88164 11.4928 9.9745C11.3999 10.0674 11.3263 10.1776 11.276 10.299C11.2258 10.4203 11.1999 10.5504 11.2 10.6817V14.5498C11.1999 14.6812 11.2258 14.8112 11.276 14.9326C11.3263 15.0539 11.3999 15.1642 11.4928 15.257C11.5857 15.3499 11.6959 15.4236 11.8172 15.4738C11.9386 15.524 12.0686 15.5499 12.2 15.5498H16.1624C15.88 16.0264 15.493 16.4325 15.0305 16.7373C14.1854 17.2732 13.2004 17.5464 12.2 17.5225C11.1624 17.5106 10.1551 17.1721 9.32096 16.5549C8.48686 15.9378 7.86849 15.0734 7.55373 14.0847L7.55344 14.083C7.20317 13.0564 7.20317 11.9427 7.55344 10.916L7.55368 10.9144C7.86866 9.9259 8.48712 9.06179 9.3212 8.44483C10.1553 7.82787 11.1626 7.48943 12.2 7.47758C12.7764 7.46435 13.3497 7.56512 13.8871 7.7741C14.4245 7.98309 14.9152 8.29616 15.3313 8.69535C15.5202 8.87591 15.7723 8.97537 16.0337 8.97245C16.295 8.96953 16.5448 8.86447 16.7297 8.67974L19.5979 5.81156C19.6929 5.71667 19.7678 5.60359 19.8182 5.47908C19.8685 5.35458 19.8932 5.22121 19.8908 5.08693C19.8885 4.95266 19.8591 4.82024 19.8044 4.69759C19.7497 4.57494 19.6708 4.46458 19.5725 4.37309C17.5766 2.5018 14.9357 1.47266 12.2 1.50004C10.1599 1.49401 8.15873 2.05806 6.4221 3.12858C4.68547 4.19911 3.28247 5.73353 2.37131 7.55883L2.36984 7.5606C1.59737 9.09235 1.19659 10.7845 1.19997 12.5C1.20241 14.2149 1.60289 15.9057 2.36989 17.4395L2.37136 17.4413C3.28252 19.2665 4.68551 20.801 6.42213 21.8715C8.15875 22.942 10.1599 23.5061 12.2 23.5C14.8853 23.568 17.4951 22.6067 19.4947 20.813L19.4954 20.8126L19.4962 20.8117L19.4964 20.8116L19.4964 20.8115C20.5803 19.7688 21.434 18.511 22.003 17.1188C22.5719 15.7267 22.8434 14.2309 22.8001 12.7276C22.8005 11.982 22.7343 11.2378 22.6023 10.504ZM12.2 3.50004C14.071 3.48183 15.8979 4.06859 17.4085 5.17289L15.9548 6.62604C14.8526 5.8631 13.5404 5.46175 12.2 5.47758C10.9762 5.48388 9.7762 5.81617 8.7235 6.44027C7.6708 7.06437 6.80343 7.95771 6.21066 9.02837L5.14145 8.19963L4.55645 7.74595C5.36122 6.4438 6.48644 5.36975 7.82461 4.6264C9.16278 3.88306 10.6692 3.49526 12.2 3.50004ZM3.67941 15.4034C3.04009 13.5206 3.04009 11.4795 3.67941 9.59672L5.46164 10.9786C5.23377 11.9798 5.23377 13.0194 5.46164 14.0206L3.67941 15.4034ZM12.2 21.5C10.6692 21.5048 9.16274 21.117 7.82455 20.3736C6.48637 19.6302 5.36114 18.5561 4.55637 17.254L4.93478 16.9604L6.21066 15.9707C6.80317 17.0417 7.67046 17.9353 8.7232 18.5596C9.77593 19.1839 10.9761 19.5163 12.2 19.5225C13.3456 19.536 14.4783 19.2787 15.5057 18.7717L17.1974 20.085C15.7096 21.0437 13.9695 21.5364 12.2 21.5ZM18.7259 18.7393L18.5429 18.5973L17.1655 17.528C17.8877 16.7478 18.3731 15.7782 18.5652 14.7325C18.592 14.5882 18.5867 14.4397 18.5497 14.2976C18.5127 14.1555 18.4448 14.0233 18.351 13.9105C18.2571 13.7976 18.1395 13.7067 18.0066 13.6444C17.8736 13.5821 17.7286 13.5498 17.5818 13.5499H13.2V11.6817H20.7488C20.783 12.0274 20.8001 12.377 20.8001 12.7276C20.8585 14.9164 20.1216 17.0522 18.7258 18.7393H18.7259Z" fill="#06161C"/>
</svg>
