<svg width="24" height="25" viewBox="0 0 24 25" fill="none" xmlns="http://www.w3.org/2000/svg">
<path d="M17.34 5.96C17.1027 5.96 16.8707 6.03038 16.6733 6.16224C16.476 6.29409 16.3222 6.48151 16.2313 6.70078C16.1405 6.92005 16.1168 7.16133 16.1631 7.39411C16.2094 7.62689 16.3236 7.84071 16.4915 8.00853C16.6593 8.17635 16.8731 8.29064 17.1059 8.33694C17.3387 8.38324 17.5799 8.35948 17.7992 8.26866C18.0185 8.17783 18.2059 8.02402 18.3378 7.82668C18.4696 7.62935 18.54 7.39734 18.54 7.16C18.54 6.84174 18.4136 6.53652 18.1885 6.31147C17.9635 6.08643 17.6583 5.96 17.34 5.96ZM21.94 8.38C21.9206 7.5503 21.7652 6.7294 21.48 5.95C21.2257 5.28313 20.83 4.67928 20.32 4.18C19.8248 3.66743 19.2196 3.27418 18.55 3.03C17.7727 2.73616 16.9508 2.57721 16.12 2.56C15.06 2.5 14.72 2.5 12 2.5C9.28 2.5 8.94 2.5 7.88 2.56C7.04915 2.57721 6.22734 2.73616 5.45 3.03C4.78168 3.27665 4.17693 3.66956 3.68 4.18C3.16743 4.67518 2.77418 5.28044 2.53 5.95C2.23616 6.72734 2.07721 7.54915 2.06 8.38C2 9.44 2 9.78 2 12.5C2 15.22 2 15.56 2.06 16.62C2.07721 17.4508 2.23616 18.2727 2.53 19.05C2.77418 19.7196 3.16743 20.3248 3.68 20.82C4.17693 21.3304 4.78168 21.7234 5.45 21.97C6.22734 22.2638 7.04915 22.4228 7.88 22.44C8.94 22.5 9.28 22.5 12 22.5C14.72 22.5 15.06 22.5 16.12 22.44C16.9508 22.4228 17.7727 22.2638 18.55 21.97C19.2196 21.7258 19.8248 21.3326 20.32 20.82C20.8322 20.3226 21.2283 19.7182 21.48 19.05C21.7652 18.2706 21.9206 17.4497 21.94 16.62C21.94 15.56 22 15.22 22 12.5C22 9.78 22 9.44 21.94 8.38ZM20.14 16.5C20.1327 17.1348 20.0178 17.7637 19.8 18.36C19.6403 18.7952 19.3839 19.1884 19.05 19.51C18.7256 19.8405 18.3332 20.0964 17.9 20.26C17.3037 20.4778 16.6748 20.5927 16.04 20.6C15.04 20.65 14.67 20.66 12.04 20.66C9.41 20.66 9.04 20.66 8.04 20.6C7.38089 20.6123 6.72459 20.5109 6.1 20.3C5.68578 20.1281 5.31136 19.8728 5 19.55C4.66809 19.2287 4.41484 18.8352 4.26 18.4C4.01586 17.7952 3.88044 17.1519 3.86 16.5C3.86 15.5 3.8 15.13 3.8 12.5C3.8 9.87 3.8 9.5 3.86 8.5C3.86448 7.85106 3.98295 7.20795 4.21 6.6C4.38605 6.17791 4.65627 5.80166 5 5.5C5.30381 5.15617 5.67929 4.8831 6.1 4.7C6.70955 4.48004 7.352 4.36508 8 4.36C9 4.36 9.37 4.3 12 4.3C14.63 4.3 15 4.3 16 4.36C16.6348 4.36728 17.2637 4.48225 17.86 4.7C18.3144 4.86865 18.7223 5.14285 19.05 5.5C19.3777 5.80718 19.6338 6.18273 19.8 6.6C20.0223 7.20893 20.1373 7.85178 20.14 8.5C20.19 9.5 20.2 9.87 20.2 12.5C20.2 15.13 20.19 15.5 20.14 16.5ZM12 7.37C10.9858 7.37198 9.99496 7.67453 9.15265 8.23942C8.31035 8.80431 7.65438 9.6062 7.26763 10.5438C6.88089 11.4813 6.78072 12.5125 6.97979 13.5069C7.17886 14.5014 7.66824 15.4145 8.38608 16.131C9.10392 16.8474 10.018 17.335 11.0129 17.5321C12.0077 17.7293 13.0387 17.6271 13.9755 17.2385C14.9123 16.85 15.7129 16.1924 16.2761 15.349C16.8394 14.5056 17.14 13.5142 17.14 12.5C17.1413 11.8251 17.0092 11.1566 16.7512 10.533C16.4933 9.90931 16.1146 9.34281 15.6369 8.86605C15.1592 8.38929 14.5919 8.01168 13.9678 7.75493C13.3436 7.49818 12.6749 7.36736 12 7.37ZM12 15.83C11.3414 15.83 10.6976 15.6347 10.15 15.2688C9.60234 14.9029 9.17552 14.3828 8.92348 13.7743C8.67144 13.1659 8.6055 12.4963 8.73398 11.8503C8.86247 11.2044 9.17963 10.611 9.64533 10.1453C10.111 9.67963 10.7044 9.36247 11.3503 9.23398C11.9963 9.1055 12.6659 9.17144 13.2743 9.42348C13.8828 9.67552 14.4029 10.1023 14.7688 10.65C15.1347 11.1976 15.33 11.8414 15.33 12.5C15.33 12.9373 15.2439 13.3703 15.0765 13.7743C14.9092 14.1784 14.6639 14.5454 14.3547 14.8547C14.0454 15.1639 13.6784 15.4092 13.2743 15.5765C12.8703 15.7439 12.4373 15.83 12 15.83Z" fill="#06161C"/>
</svg>
