<svg width="24" height="25" viewBox="0 0 24 25" fill="none" xmlns="http://www.w3.org/2000/svg">
<path d="M17.5 9.49891C16.6047 9.49853 15.7233 9.71997 14.9345 10.1434C14.8626 9.95386 14.7346 9.79068 14.5677 9.67555C14.4008 9.56043 14.2027 9.49882 14 9.49891H9.99997C9.86863 9.49883 9.73856 9.52465 9.6172 9.57488C9.49584 9.6251 9.38557 9.69876 9.2927 9.79164C9.19982 9.88451 9.12617 9.99478 9.07594 10.1161C9.02571 10.2375 8.9999 10.3676 8.99997 10.4989V22.4989C8.99989 22.6303 9.02571 22.7603 9.07594 22.8817C9.12616 23.003 9.19982 23.1133 9.29269 23.2062C9.38557 23.2991 9.49584 23.3727 9.6172 23.4229C9.73856 23.4732 9.86863 23.499 9.99997 23.4989H14C14.1313 23.499 14.2614 23.4732 14.3827 23.4229C14.5041 23.3727 14.6144 23.2991 14.7072 23.2062C14.8001 23.1133 14.8738 23.003 14.924 22.8817C14.9742 22.7603 15 22.6303 15 22.4989V16.9989C15 16.7337 15.1053 16.4793 15.2929 16.2918C15.4804 16.1043 15.7348 15.9989 16 15.9989C16.2652 15.9989 16.5195 16.1043 16.7071 16.2918C16.8946 16.4793 17 16.7337 17 16.9989V22.4989C16.9999 22.6303 17.0257 22.7603 17.0759 22.8817C17.1262 23.003 17.1998 23.1133 17.2927 23.2062C17.3856 23.2991 17.4958 23.3727 17.6172 23.4229C17.7386 23.4732 17.8686 23.499 18 23.4989H22C22.1313 23.499 22.2614 23.4732 22.3827 23.4229C22.5041 23.3727 22.6144 23.2991 22.7072 23.2062C22.8001 23.1133 22.8738 23.003 22.924 22.8817C22.9742 22.7603 23 22.6303 23 22.4989V14.9989C22.9982 13.5408 22.4181 12.1429 21.3871 11.1118C20.356 10.0808 18.9581 9.50072 17.5 9.49891ZM21 21.4989H19V16.9989C19 16.2033 18.6839 15.4402 18.1213 14.8776C17.5587 14.315 16.7956 13.9989 16 13.9989C15.2043 13.9989 14.4413 14.315 13.8786 14.8776C13.316 15.4402 13 16.2033 13 16.9989V21.4989H11V11.4989H13V12.202C13.0001 12.4092 13.0645 12.6113 13.1844 12.7803C13.3043 12.9493 13.4737 13.0769 13.6692 13.1455C13.8647 13.2141 14.0767 13.2203 14.2759 13.1633C14.4751 13.1062 14.6517 12.9887 14.7812 12.827C15.23 12.2571 15.8456 11.8415 16.542 11.6383C17.2384 11.4351 17.9808 11.4544 18.6657 11.6936C19.3506 11.9328 19.9436 12.3799 20.3621 12.9725C20.7806 13.565 21.0036 14.2735 21 14.9989V21.4989ZM6.99997 9.49891H2.99997C2.86863 9.49883 2.73856 9.52465 2.6172 9.57488C2.49584 9.6251 2.38557 9.69876 2.2927 9.79164C2.19982 9.88451 2.12617 9.99478 2.07594 10.1161C2.02571 10.2375 1.9999 10.3676 1.99997 10.4989V22.4989C1.99989 22.6303 2.02571 22.7603 2.07594 22.8817C2.12616 23.003 2.19982 23.1133 2.29269 23.2062C2.38557 23.2991 2.49584 23.3727 2.6172 23.4229C2.73856 23.4732 2.86863 23.499 2.99997 23.4989H6.99997C7.13131 23.499 7.26138 23.4732 7.38274 23.4229C7.5041 23.3727 7.61437 23.2991 7.70725 23.2062C7.80012 23.1133 7.87378 23.003 7.92401 22.8817C7.97423 22.7603 8.00005 22.6303 7.99997 22.4989V10.4989C8.00005 10.3676 7.97423 10.2375 7.924 10.1161C7.87378 9.99478 7.80012 9.88451 7.70724 9.79164C7.61437 9.69876 7.5041 9.6251 7.38274 9.57488C7.26138 9.52465 7.13131 9.49883 6.99997 9.49891ZM5.99997 21.4989H3.99997V11.4989H5.99997V21.4989ZM5.01462 2.04191C4.57698 2.01571 4.13859 2.07881 3.7261 2.22735C3.31361 2.3759 2.93564 2.6068 2.61519 2.906C2.29473 3.20521 2.03849 3.56646 1.86203 3.96781C1.68557 4.36915 1.59259 4.8022 1.58875 5.2406C1.5849 5.67901 1.67027 6.11361 1.83966 6.51799C2.00904 6.92237 2.25891 7.28807 2.57407 7.59285C2.88922 7.89763 3.26308 8.13512 3.6729 8.29089C4.08272 8.44665 4.51994 8.51742 4.95797 8.49891H4.98629C5.42509 8.52497 5.86459 8.46129 6.27795 8.31176C6.6913 8.16223 7.06983 7.92998 7.39039 7.62922C7.71096 7.32845 7.96683 6.96548 8.14238 6.56249C8.31793 6.15949 8.40946 5.72494 8.41139 5.28537C8.41332 4.8458 8.3256 4.41046 8.15359 4.00594C7.98159 3.60142 7.7289 3.23622 7.41099 2.93266C7.09307 2.62909 6.7166 2.39353 6.30457 2.24038C5.89255 2.08723 5.45362 2.0197 5.01461 2.04191H5.01462ZM4.9863 6.49891H4.95797C4.78504 6.51991 4.60961 6.50369 4.44346 6.45134C4.27731 6.39899 4.12427 6.31171 3.99461 6.19537C3.86495 6.07903 3.76167 5.93631 3.69168 5.77678C3.6217 5.61726 3.58664 5.44461 3.58884 5.27042C3.58884 4.52432 4.14841 4.0419 5.01462 4.0419C5.18932 4.01861 5.36698 4.03303 5.53564 4.08418C5.70429 4.13534 5.86003 4.22204 5.99236 4.33845C6.12468 4.45486 6.23053 4.59828 6.30276 4.75904C6.37499 4.9198 6.41193 5.09418 6.4111 5.27042C6.4111 6.01651 5.85153 6.49891 4.9863 6.49891Z" fill="#06161C"/>
</svg>
