<svg width="20" height="21" viewBox="0 0 20 21" fill="none" xmlns="http://www.w3.org/2000/svg">
<g clip-path="url(#clip0_2163_23461)">
<path d="M14.512 12.4835C14.265 12.3595 13.047 11.7595 12.82 11.6775C12.593 11.5945 12.428 11.5535 12.263 11.8015C12.098 12.0485 11.623 12.6075 11.478 12.7725C11.334 12.9375 11.189 12.9575 10.942 12.8335C10.2121 12.5429 9.53832 12.1273 8.951 11.6055C8.40932 11.1048 7.94493 10.5265 7.573 9.88949C7.429 9.64149 7.558 9.50749 7.682 9.38449C7.793 9.27349 7.93 9.09549 8.053 8.95049C8.15487 8.82531 8.23838 8.68624 8.301 8.53749C8.33395 8.46913 8.34929 8.39362 8.34562 8.31782C8.34196 8.24202 8.3194 8.16834 8.28 8.10349C8.218 7.97949 7.723 6.76049 7.517 6.26449C7.316 5.78249 7.112 5.84749 6.959 5.83949C6.815 5.83249 6.65 5.83049 6.485 5.83049C6.35949 5.83399 6.23605 5.86342 6.12247 5.91695C6.00888 5.97047 5.9076 6.04692 5.825 6.14149C5.54502 6.40662 5.32334 6.72717 5.17407 7.0827C5.0248 7.43823 4.95121 7.82095 4.958 8.20649C5.0383 9.14072 5.38968 10.0312 5.969 10.7685C7.03092 12.3605 8.48863 13.649 10.199 14.5075C10.6604 14.7057 11.1317 14.8799 11.611 15.0295C12.1163 15.1829 12.6505 15.2161 13.171 15.1265C13.5157 15.0567 13.8422 14.9161 14.1298 14.7137C14.4174 14.5113 14.6599 14.2514 14.842 13.9505C15.0044 13.5804 15.0545 13.1708 14.986 12.7725C14.925 12.6685 14.76 12.6075 14.512 12.4835ZM17.004 3.40449C15.3039 1.70484 13.0442 0.680896 10.6454 0.523292C8.24662 0.365687 5.8723 1.08516 3.96448 2.54776C2.05667 4.01037 0.745358 6.11643 0.274694 8.47385C-0.195971 10.8313 0.206082 13.2794 1.406 15.3625L0 20.4975L5.254 19.1205C6.70716 19.9117 8.33538 20.3264 9.99 20.3265H9.994C11.9541 20.3255 13.8699 19.7435 15.4994 18.6542C17.1289 17.5648 18.399 16.0169 19.1491 14.2061C19.8993 12.3952 20.0959 10.4026 19.7141 8.48007C19.3323 6.55752 18.3892 4.79127 17.004 3.40448V3.40449ZM14.371 17.3935C13.0591 18.2158 11.5423 18.6521 9.994 18.6525H9.99C8.5149 18.6524 7.06699 18.2555 5.798 17.5035L5.497 17.3255L2.379 18.1435L3.211 15.1035L3.016 14.7915C2.15055 13.4113 1.71378 11.8055 1.76094 10.1771C1.80809 8.54876 2.33705 6.97092 3.28092 5.64316C4.22479 4.31539 5.54119 3.29733 7.06365 2.7177C8.58611 2.13807 10.2463 2.02291 11.8342 2.38678C13.4221 2.75065 14.8664 3.57721 15.9846 4.76193C17.1027 5.94666 17.8445 7.43635 18.116 9.04262C18.3876 10.6489 18.1767 12.2996 17.5101 13.7861C16.8435 15.2725 15.7511 16.5279 14.371 17.3935Z" fill="#06161C"/>
</g>
<defs>
<clipPath id="clip0_2163_23461">
<rect width="19.904" height="19.9956" fill="white" transform="translate(0 0.501953)"/>
</clipPath>
</defs>
</svg>
