<svg width="120" height="120" viewBox="0 0 120 120" fill="none" xmlns="http://www.w3.org/2000/svg">
<path fill-rule="evenodd" clip-rule="evenodd" d="M45.6125 36.4063C43.3292 33.585 40.2326 32 37.0036 32C33.7747 32 30.678 33.585 28.3948 36.4063C26.1116 39.2276 24.8289 43.0542 24.8289 47.0441C24.8289 51.034 26.1116 54.8606 28.3948 57.6819L35.9562 67.0431C36.0896 67.2093 36.2483 67.3412 36.4231 67.4312C36.598 67.5212 36.7855 67.5676 36.9749 67.5676C37.1643 67.5676 37.3519 67.5212 37.5267 67.4312C37.7016 67.3412 37.8602 67.2093 37.9936 67.0431L45.6125 57.5932C47.8861 54.7837 49.1635 50.9731 49.1635 46.9998C49.1635 43.0265 47.8861 39.2159 45.6125 36.4063ZM36.9961 54.526C40.4904 54.526 43.3231 51.0758 43.3231 46.8197C43.3231 42.5637 40.4904 39.1134 36.9961 39.1134C33.5018 39.1134 30.6691 42.5637 30.6691 46.8197C30.6691 51.0758 33.5018 54.526 36.9961 54.526Z" fill="#37AAD7"/>
<path d="M10 88H23.8783C23.8783 88 31.8631 72.2973 33.384 69.6486C28.0608 63.7838 25.5894 60.9459 22.3574 55.0811C21.2167 58.2973 10 88 10 88Z" fill="#37AAD7"/>
<path d="M64.1826 88H50.3043C50.3043 88 42.3195 72.2973 40.7986 69.6486C46.1218 63.7838 48.5933 60.9459 51.8252 55.0811C52.9659 58.2973 64.1826 88 64.1826 88Z" fill="#37AAD7"/>
<path fill-rule="evenodd" clip-rule="evenodd" d="M67.7947 88V32H89.6578C98.9734 32 109.43 37.2084 109.43 49.4266C109.43 61.2702 101.748 64.3194 98.1604 65.7437C98.047 65.7887 97.9376 65.8321 97.8327 65.8741L110 88H94.981L83.9544 66.8531H81.1027V88H67.7947ZM80.9125 57.0629V43.9441H89.8479C91.8124 44.2051 95.7414 45.8629 95.7414 50.4056C95.7414 56.0839 91.7491 57.0629 89.8479 57.0629H80.9125Z" fill="#37AAD7"/>
</svg>
